# xmcd CD database file
#
# Track frame offsets:
#	150
#	11980
#	25023
#	37568
#	48119
#	61889
#	71927
#	83922
#	96998
#	110750
#	120835
#	132019
#	143857
#	160887
#	173887
#	186170
#
# Disc length: 2598 seconds
#
# Revision: 0
# Processed by: cddbd v1.5.1PL0 Copyright (c) Steve Scherf et al.
# Submitted via: CDex 1.50
#
DISCID=d00a2410
DTITLE=patsy cline - the best of
DYEAR=1900
DGENRE=Country
TTITLE0=Walking After Midnight - Walking After Midnight
TTITLE1=I Fall To Pieces - I Fall To Pieces
TTITLE2=Crazy - Crazy
TTITLE3=Who Can I Count On - Who Can I Count On
TTITLE4=Shes Got You
TTITLE5=Strange - Strange
TTITLE6=When I Get Thru With You - When I Get Thru With You
TTITLE7=Imagine That
TTITLE8=So Wrong
TTITLE9=Heartaches - Heartaches
TTITLE10=Leavin On Your Mind
TTITLE11=Sweet Dreams (Of You - Sweet Dreams (Of You)
TTITLE12=Faded Love
TTITLE13=When You Need a Laugh - When You Need a Laugh
TTITLE14=He called me baby - He called me baby
TTITLE15=Anytime - Anytime
EXTD=
EXTT0=
EXTT1=
EXTT2=
EXTT3=
EXTT4=
EXTT5=
EXTT6=
EXTT7=
EXTT8=
EXTT9=
EXTT10=
EXTT11=
EXTT12=
EXTT13=
EXTT14=
EXTT15=
PLAYORDER=
